<svg width="17" height="17" viewBox="0 0 17 17" fill="none" xmlns="http://www.w3.org/2000/svg">
<g clip-path="url(#clip0_983_59)">
<path d="M2.24 1.49995V5.92101M2.24 5.92101H6.66106M2.24 5.92101L4.18551 4.17518C5.2031 3.15939 6.52327 2.50179 7.94712 2.30148C9.37096 2.10117 10.8213 2.36899 12.0797 3.06459C13.3381 3.76019 14.3363 4.84589 14.924 6.1581C15.5116 7.47031 15.6569 8.93794 15.3378 10.3399C15.0188 11.7418 14.2527 13.0021 13.1551 13.9308C12.0574 14.8595 10.6877 15.4064 9.25218 15.489C7.81669 15.5716 6.39323 15.1855 5.19627 14.3888C3.99932 13.5922 3.09372 12.4281 2.61592 11.072" stroke="#617199" stroke-width="2" stroke-linecap="round" stroke-linejoin="round"/>
</g>
<defs>
<clipPath id="clip0_983_59">
<rect width="16" height="16" fill="white" transform="translate(0.500002 0.499954)"/>
</clipPath>
</defs>
</svg>
